   <svg xmlns="http://www.w3.org/2000/svg" width="70px" viewBox="0 0 347 337">
        <path
          fill="#387478"
          opacity="1.000000"
          stroke="none"
          d="M210.408081,91.427963 C211.145813,90.719666 211.627045,90.258492 212.108154,89.797188 
             C220.580017,81.673782 220.628494,81.577827 231.366882,87.003769 
             C278.655884,110.898140 304.094879,149.006760 302.537170,202.350266 
             C301.119995,250.882172 276.658691,285.919769 233.706848,308.147736 
             C229.439529,310.356110 224.586044,314.003632 220.560974,313.381775 
             C216.570145,312.765228 213.198380,307.684143 209.703995,304.402618 
             C201.323349,296.532532 193.035355,288.563873 184.696091,280.649597 
             C183.392487,279.412445 182.016022,278.252045 180.460526,276.866699 
             C168.269836,288.221893 156.219513,299.219391 144.479294,310.538513 
             C141.472168,313.437775 139.064545,313.809570 135.355408,312.159912 
             C91.090431,292.472809 62.958416,259.521881 58.044228,210.885193 
             C52.833088,159.309540 74.558151,119.709549 118.810837,92.679825 
             C124.053703,89.477455 129.809860,87.126495 135.231232,84.201393 
             C138.765884,82.294258 141.275253,82.638878 144.359863,85.645645 
             C155.095688,96.110558 166.211304,106.186012 177.193924,116.397270 
             C178.157959,117.293602 179.205124,118.100487 180.630356,119.299438 
             C190.525818,110.039764 200.338669,100.857391 210.408081,91.427963 
             M162.169495,241.543823 C184.222977,249.181885 203.932663,243.870850 217.240967,226.736481 
             C234.659348,204.310318 229.358978,177.625259 209.066605,161.000000 
             C188.531708,144.176071 158.082397,149.205826 142.126602,170.431961 
             C128.797226,188.164124 128.229935,226.079147 162.169495,241.543823 
             M69.276978,222.007355 C73.614616,240.889908 81.166222,258.138550 93.622063,271.831635 
             C99.833740,265.628784 105.658142,259.812683 110.704033,254.773956 
             C106.204185,245.719131 100.045387,236.820496 97.210037,226.965668 
             C88.690735,197.355148 90.955429,168.926376 110.474197,143.483795 
             C111.214554,142.518738 111.815849,140.253815 111.299110,139.701721 
             C106.011574,134.052460 100.478958,128.632614 94.497955,122.629944 
             C71.281548,152.429596 61.663067,184.590912 69.276978,222.007355 
             M279.684235,142.890839 C275.867462,136.980469 272.050659,131.070114 267.653137,124.260460 
             C262.147369,130.018433 257.740631,135.024384 252.887100,139.551346 
             C250.052597,142.195129 250.209030,144.014755 252.345276,147.021164 
             C262.227081,160.928055 267.674377,176.520813 268.703308,193.539429 
             C269.970734,214.501801 263.602783,233.261505 251.779129,250.386536 
             C250.870819,251.702057 249.727707,254.348953 250.267136,254.939301 
             C255.586212,260.760315 261.238281,266.277039 266.837708,271.922119 
             C295.039703,238.004089 304.736847,189.007126 279.684235,142.890839 
             M232.443939,178.097427 C241.421951,205.549469 233.427139,227.689850 210.713913,245.651581 
             C216.558060,250.940399 222.149673,256.000702 227.686737,261.011627 
             C228.791626,260.318939 229.386200,260.020935 229.895813,259.615997 
             C254.695572,239.909073 263.361908,214.006027 258.266052,183.360352 
             C255.187500,164.846420 246.442642,149.190491 231.204437,137.677551 
             C229.991119,136.760864 227.349579,135.871552 226.619598,136.476135 
             C221.304962,140.877899 216.310257,145.665955 210.961136,150.563904 
             C220.363403,158.254089 227.933426,166.524338 232.443939,178.097427 
             M139.573456,160.081192 C142.781281,157.013626 145.989105,153.946045 149.432037,150.653625 
             C143.812653,145.307709 138.435425,140.192169 133.141647,135.156021 
             C88.689247,166.419632 92.669785,234.604996 133.449036,261.068298 
             C138.417145,255.518417 143.460098,249.884933 148.409882,244.355499 
             C117.228638,222.001221 119.873894,180.700089 139.573456,160.081192 
             M113.967552,266.437042 C109.529457,270.599731 105.091354,274.762390 100.317139,279.240356 
             C111.333138,289.325714 122.650841,296.404572 134.996140,301.999664 
             C138.046814,303.382263 140.006226,302.942383 142.401917,300.587799 
             C156.990829,286.249237 171.752319,272.086365 186.433640,257.841614 
             C187.404251,256.899841 188.188034,255.765549 188.522552,255.364166 
             C179.851715,253.924759 171.216476,252.883072 162.801910,250.903412 
             C159.391098,250.100967 157.354584,250.309128 155.007126,252.825394 
             C148.568237,259.727417 141.909424,266.424286 135.213135,273.330750 
             C129.222458,269.011597 124.154137,265.357452 118.107857,260.998199 
             C116.842003,262.715210 115.656647,264.323029 113.967552,266.437042 
             M125.975761,129.496414 C127.341454,128.544586 128.810242,127.710030 130.052612,126.617897 
             C133.205902,123.845955 135.636353,123.852394 138.718445,127.229889 
             C144.095886,133.122711 149.922180,138.632385 155.865799,143.962021 
             C157.215805,145.172562 159.893448,145.591248 161.822540,145.335876 
             C167.232697,144.619720 172.537766,143.102051 177.949326,142.406616 
             C181.621658,141.934723 185.403702,142.316498 189.621017,142.316498 
             C189.069931,141.408218 188.849197,140.795517 188.429245,140.388260 
             C172.654770,125.090408 156.896835,109.774834 140.985168,94.620735 
             C140.026062,93.707306 137.522888,93.432831 136.248932,94.002762 
             C130.791504,96.444229 125.293739,98.945137 120.247467,102.118874 
             C113.702225,106.235352 107.572105,111.011894 101.635620,115.239174 
             C108.270988,121.886589 114.176514,127.802841 120.210495,133.847778 
             C121.687973,132.726562 123.538353,131.322372 125.975761,129.496414 
             M219.567520,130.071274 C220.429367,129.285248 221.426559,128.603943 222.129654,127.695107 
             C225.190781,123.738274 228.298370,123.681374 232.055130,126.928925 
             C235.674942,130.058105 239.650223,132.776093 242.569443,134.991745 
             C248.581680,128.888809 254.346069,123.037460 260.258026,117.036324 
             C251.034454,107.860306 239.636429,100.521652 227.261795,94.508202 
             C224.246933,93.043129 222.374374,93.155281 219.926544,95.643028 
             C210.226730,105.500908 200.270782,115.106544 190.432861,124.829041 
             C189.531326,125.719994 188.794006,126.777153 187.740448,128.046188 
             C193.374878,133.391220 198.774551,138.513580 204.460190,143.907211 
             C209.503647,139.287018 214.272659,134.918243 219.567520,130.071274 
             M211.653290,258.830750 C209.325897,256.746033 206.998520,254.661316 204.434692,252.364807 
             C198.699661,257.823761 193.230194,263.029968 187.630554,268.360077 
             C189.064606,269.899414 190.037033,271.022064 191.090897,272.062225 
             C201.151993,281.992218 211.160812,291.977783 221.407364,301.712952 
             C222.356445,302.614655 225.262329,302.598236 226.546265,301.824463 
             C236.335205,295.925140 245.959412,289.751312 255.602936,283.612762 
             C257.523834,282.389984 259.307404,280.951508 260.707062,279.936737 
             C253.918213,273.197906 248.165039,267.487122 242.255310,261.620941 
             C238.510544,264.397034 234.348969,267.385925 230.300232,270.520569 
             C227.958633,272.333466 226.123459,272.459991 223.868942,270.175171 
             C220.135986,266.392059 216.080170,262.927460 211.653290,258.830750 z">
        </path>
        <path fill="#243642" opacity="1.000000" stroke="none" d=" M207.241516,186.856171   C212.127518,200.006149 209.522324,211.660873 199.974030,220.443863   C191.242401,228.475677 178.483704,230.281311 167.393814,225.054703   C156.985474,220.149292 150.410568,208.906754 150.989609,197.004913   C151.611191,184.228607 161.465561,172.460403 173.718124,169.862244   C187.848801,166.865845 200.165024,173.011536 207.241516,186.856171  M194.802536,213.322723   C195.740784,212.157913 196.783340,211.061646 197.600800,209.817474   C204.040253,200.016617 200.759628,186.387085 190.644211,180.759262   C180.014587,174.845367 166.908096,178.875305 161.729568,189.649796   C157.659531,198.117966 159.978180,208.659912 167.208405,214.559982   C175.062668,220.969284 185.137299,220.697571 194.802536,213.322723  z"></path>
      </svg>